<?xml version="1.0" encoding="UTF-8" standalone="no"?>
<!DOCTYPE svg PUBLIC "-//W3C//DTD SVG 1.1//EN" "http://www.w3.org/Graphics/SVG/1.1/DTD/svg11.dtd">
<svg width="100%" height="100%" viewBox="0 0 389 390" version="1.1" xmlns="http://www.w3.org/2000/svg" xmlns:xlink="http://www.w3.org/1999/xlink" xml:space="preserve" xmlns:serif="http://www.serif.com/" style="fill-rule:evenodd;clip-rule:evenodd;stroke-linejoin:round;stroke-miterlimit:2;">
    <g transform="matrix(1,0,0,1,-3668,-1991)">
        <g id="Universe" transform="matrix(4.16667,0,0,4.16667,0,0)">
            <path d="M927.012,571.212C901.256,571.212 880.377,550.333 880.377,524.578C880.377,498.822 901.256,477.943 927.012,477.943C952.767,477.943 973.646,498.822 973.646,524.578C973.646,550.333 952.767,571.212 927.012,571.212ZM927.012,485.348C905.346,485.348 887.782,502.912 887.782,524.578C887.782,546.244 905.346,563.808 927.012,563.808C948.678,563.808 966.242,546.244 966.242,524.578C966.242,502.912 948.678,485.348 927.012,485.348Z" style="fill:rgb(24,26,55);fill-rule:nonzero;"/>
            <path d="M927.012,563.808C905.346,563.808 887.782,546.244 887.782,524.578C887.782,502.912 905.346,485.348 927.012,485.348C948.678,485.348 966.242,502.912 966.242,524.578C966.242,546.244 948.678,563.808 927.012,563.808Z" style="fill:rgb(49,50,76);fill-rule:nonzero;"/>
            <path d="M958.029,521.209C959.517,531.62 955.249,541.976 947.135,548.65C939.141,555.225 927.686,557.956 917.743,554.64C906.363,550.845 898.387,540.062 898.132,528.058C897.966,520.278 901.51,512.765 907.785,508.087C913.608,503.745 921.565,502.126 928.489,504.547C936.572,507.374 942.512,516.265 940.719,524.895C939.979,528.453 938.118,531.59 935.137,533.737C933.257,535.092 931.063,535.915 928.754,536.119C927.817,536.201 926.903,536.136 925.972,536.03C925.503,535.977 925.441,535.441 925.965,535.41C935.652,534.841 940.37,524.785 936.044,516.498C932.258,509.245 923.696,506.887 916.347,509.592C905.594,513.555 901.709,525.659 905.701,535.842C909.719,546.091 919.886,551.465 930.549,550.683C941.924,549.561 951.501,541.887 955.589,531.309C956.36,529.009 956.969,526.714 957.24,524.295C957.291,523.841 957.339,520.102 958.029,521.209Z" style="fill:rgb(184,134,188);fill-rule:nonzero;"/>
            <path d="M895.995,527.946C894.506,517.535 898.775,507.179 906.889,500.505C914.882,493.931 926.337,491.199 936.281,494.515C947.66,498.31 955.636,509.093 955.892,521.099C956.057,528.878 952.513,536.39 946.239,541.069C940.415,545.411 932.458,547.03 925.535,544.609C917.452,541.782 911.511,532.891 913.305,524.26C914.045,520.703 915.906,517.566 918.887,515.419C920.766,514.065 922.96,513.24 925.269,513.037C926.207,512.954 927.121,513.019 928.052,513.125C928.52,513.18 928.582,513.714 928.058,513.745C918.372,514.315 913.654,524.371 917.979,532.657C921.765,539.911 930.328,542.268 937.676,539.563C948.429,535.602 952.314,523.497 948.322,513.313C944.305,503.065 934.138,497.691 923.474,498.473C912.1,499.594 902.523,507.269 898.435,517.846C897.663,520.146 897.055,522.443 896.784,524.861C896.733,525.315 896.685,529.054 895.995,527.946Z" style="fill:rgb(107,159,213);fill-rule:nonzero;"/>
            <path d="M905.327,528.555L907.417,529.654L907.018,527.326L908.709,525.677L906.372,525.337L905.327,523.219L904.281,525.337L901.944,525.677L903.635,527.326L903.236,529.654L905.327,528.555Z" style="fill:white;fill-rule:nonzero;"/>
            <path d="M945.701,510.992L947.792,512.091L947.393,509.763L949.084,508.115L946.746,507.775L945.701,505.657L944.656,507.775L942.318,508.115L944.01,509.763L943.61,512.091L945.701,510.992Z" style="fill:white;fill-rule:nonzero;"/>
            <path d="M931.914,528.709L934.187,529.952L931.914,531.195L930.672,533.468L929.429,531.195L927.156,529.952L929.429,528.709L930.672,526.436L931.914,528.709Z" style="fill:white;fill-rule:nonzero;"/>
            <path d="M926.421,497.966L927.557,498.587L926.421,499.209L925.8,500.345L925.178,499.209L924.042,498.587L925.178,497.966L925.8,496.829L926.421,497.966Z" style="fill:white;fill-rule:nonzero;"/>
            <path d="M939.424,544.546L940.56,545.168L939.424,545.789L938.802,546.926L938.181,545.789L937.044,545.168L938.181,544.546L938.802,543.41L939.424,544.546Z" style="fill:white;fill-rule:nonzero;"/>
            <path d="M946.323,523.956L947.459,524.578L946.323,525.199L945.701,526.336L945.08,525.199L943.943,524.578L945.08,523.956L945.701,522.82L946.323,523.956Z" style="fill:white;fill-rule:nonzero;"/>
            <path d="M917.419,543.408L918.555,544.03L917.419,544.651L916.798,545.788L916.176,544.651L915.04,544.03L916.176,543.408L916.798,542.272L917.419,543.408Z" style="fill:white;fill-rule:nonzero;"/>
            <path d="M911.089,538.309L912.225,538.93L911.089,539.552L910.467,540.688L909.846,539.552L908.709,538.93L909.846,538.309L910.467,537.172L911.089,538.309Z" style="fill:white;fill-rule:nonzero;"/>
            <path d="M913.904,510.675L915.04,511.297L913.904,511.918L913.282,513.055L912.661,511.918L911.524,511.297L912.661,510.675L913.282,509.539L913.904,510.675Z" style="fill:white;fill-rule:nonzero;"/>
            <path d="M937.666,521.608L938.802,522.23L937.666,522.851L937.044,523.988L936.423,522.851L935.286,522.23L936.423,521.608L937.044,520.472L937.666,521.608Z" style="fill:white;fill-rule:nonzero;"/>
        </g>
    </g>
</svg>
